<mxfile host="app.diagrams.net" modified="2022-03-16T10:33:07.164Z" agent="5.0 (Windows)" etag="67lSC1T82jy7OyLhDqxI" version="17.1.3" type="github">
  <diagram id="FBlCdinOJhXLp7WLcmXh" name="Page-1">
    <mxGraphModel dx="1597" dy="825" grid="1" gridSize="10" guides="1" tooltips="1" connect="1" arrows="1" fold="1" page="1" pageScale="1" pageWidth="850" pageHeight="1100" background="none" math="0" shadow="0">
      <root>
        <mxCell id="0" />
        <mxCell id="1" parent="0" />
        <mxCell id="59lSfz3TggU4L8-Xc4nE-28" style="edgeStyle=orthogonalEdgeStyle;rounded=0;orthogonalLoop=1;jettySize=auto;html=1;exitX=1;exitY=1;exitDx=0;exitDy=0;" edge="1" parent="1" source="59lSfz3TggU4L8-Xc4nE-1" target="59lSfz3TggU4L8-Xc4nE-27">
          <mxGeometry relative="1" as="geometry" />
        </mxCell>
        <mxCell id="59lSfz3TggU4L8-Xc4nE-1" value="" style="rounded=0;whiteSpace=wrap;html=1;" vertex="1" parent="1">
          <mxGeometry x="130" y="240" width="120" height="60" as="geometry" />
        </mxCell>
        <mxCell id="59lSfz3TggU4L8-Xc4nE-2" value="User" style="text;html=1;resizable=0;autosize=1;align=center;verticalAlign=middle;points=[];fillColor=none;strokeColor=none;rounded=0;" vertex="1" parent="1">
          <mxGeometry x="170" y="260" width="40" height="20" as="geometry" />
        </mxCell>
        <mxCell id="59lSfz3TggU4L8-Xc4nE-7" value="ID" style="ellipse;whiteSpace=wrap;html=1;" vertex="1" parent="1">
          <mxGeometry x="80" y="120" width="50" height="30" as="geometry" />
        </mxCell>
        <mxCell id="59lSfz3TggU4L8-Xc4nE-8" value="" style="endArrow=none;html=1;rounded=0;entryX=0.6;entryY=1;entryDx=0;entryDy=0;entryPerimeter=0;exitX=0;exitY=0;exitDx=0;exitDy=0;" edge="1" parent="1" source="59lSfz3TggU4L8-Xc4nE-1" target="59lSfz3TggU4L8-Xc4nE-7">
          <mxGeometry width="50" height="50" relative="1" as="geometry">
            <mxPoint x="280" y="260" as="sourcePoint" />
            <mxPoint x="330" y="210" as="targetPoint" />
          </mxGeometry>
        </mxCell>
        <mxCell id="59lSfz3TggU4L8-Xc4nE-9" value="Firstname" style="ellipse;whiteSpace=wrap;html=1;" vertex="1" parent="1">
          <mxGeometry x="140" y="110" width="60" height="30" as="geometry" />
        </mxCell>
        <mxCell id="59lSfz3TggU4L8-Xc4nE-10" value="" style="endArrow=none;html=1;rounded=0;entryX=0.5;entryY=1;entryDx=0;entryDy=0;" edge="1" parent="1" target="59lSfz3TggU4L8-Xc4nE-9">
          <mxGeometry width="50" height="50" relative="1" as="geometry">
            <mxPoint x="130" y="240" as="sourcePoint" />
            <mxPoint x="330" y="210" as="targetPoint" />
            <Array as="points" />
          </mxGeometry>
        </mxCell>
        <mxCell id="59lSfz3TggU4L8-Xc4nE-11" value="LastName" style="ellipse;whiteSpace=wrap;html=1;" vertex="1" parent="1">
          <mxGeometry x="210" y="110" width="60" height="30" as="geometry" />
        </mxCell>
        <mxCell id="59lSfz3TggU4L8-Xc4nE-13" value="Username" style="ellipse;whiteSpace=wrap;html=1;" vertex="1" parent="1">
          <mxGeometry x="280" y="100" width="60" height="40" as="geometry" />
        </mxCell>
        <mxCell id="59lSfz3TggU4L8-Xc4nE-14" value="Phone no." style="ellipse;whiteSpace=wrap;html=1;" vertex="1" parent="1">
          <mxGeometry x="350" y="105" width="70" height="35" as="geometry" />
        </mxCell>
        <mxCell id="59lSfz3TggU4L8-Xc4nE-15" value="Actor" style="shape=umlActor;verticalLabelPosition=bottom;verticalAlign=top;html=1;outlineConnect=0;" vertex="1" parent="1">
          <mxGeometry x="160" y="255" width="10" height="30" as="geometry" />
        </mxCell>
        <mxCell id="59lSfz3TggU4L8-Xc4nE-29" style="edgeStyle=orthogonalEdgeStyle;rounded=0;orthogonalLoop=1;jettySize=auto;html=1;exitX=1;exitY=1;exitDx=0;exitDy=0;entryX=1;entryY=1;entryDx=0;entryDy=0;" edge="1" parent="1" source="59lSfz3TggU4L8-Xc4nE-16" target="59lSfz3TggU4L8-Xc4nE-27">
          <mxGeometry relative="1" as="geometry" />
        </mxCell>
        <mxCell id="59lSfz3TggU4L8-Xc4nE-38" style="edgeStyle=orthogonalEdgeStyle;rounded=0;orthogonalLoop=1;jettySize=auto;html=1;exitX=0.25;exitY=0;exitDx=0;exitDy=0;entryX=0.5;entryY=1;entryDx=0;entryDy=0;" edge="1" parent="1" source="59lSfz3TggU4L8-Xc4nE-16" target="59lSfz3TggU4L8-Xc4nE-18">
          <mxGeometry relative="1" as="geometry" />
        </mxCell>
        <mxCell id="59lSfz3TggU4L8-Xc4nE-39" style="edgeStyle=orthogonalEdgeStyle;rounded=0;orthogonalLoop=1;jettySize=auto;html=1;exitX=1;exitY=0;exitDx=0;exitDy=0;entryX=0.345;entryY=0.993;entryDx=0;entryDy=0;entryPerimeter=0;" edge="1" parent="1" source="59lSfz3TggU4L8-Xc4nE-16" target="59lSfz3TggU4L8-Xc4nE-19">
          <mxGeometry relative="1" as="geometry" />
        </mxCell>
        <mxCell id="59lSfz3TggU4L8-Xc4nE-16" value="ROLES" style="rounded=0;whiteSpace=wrap;html=1;" vertex="1" parent="1">
          <mxGeometry x="530" y="240" width="100" height="50" as="geometry" />
        </mxCell>
        <mxCell id="59lSfz3TggU4L8-Xc4nE-18" value="RoleID" style="ellipse;whiteSpace=wrap;html=1;" vertex="1" parent="1">
          <mxGeometry x="520" y="140" width="70" height="40" as="geometry" />
        </mxCell>
        <mxCell id="59lSfz3TggU4L8-Xc4nE-19" value="Role" style="ellipse;whiteSpace=wrap;html=1;" vertex="1" parent="1">
          <mxGeometry x="630" y="140" width="70" height="40" as="geometry" />
        </mxCell>
        <mxCell id="59lSfz3TggU4L8-Xc4nE-41" style="edgeStyle=orthogonalEdgeStyle;rounded=0;orthogonalLoop=1;jettySize=auto;html=1;exitX=0;exitY=1;exitDx=0;exitDy=0;entryX=0.5;entryY=0;entryDx=0;entryDy=0;" edge="1" parent="1" source="59lSfz3TggU4L8-Xc4nE-20" target="59lSfz3TggU4L8-Xc4nE-40">
          <mxGeometry relative="1" as="geometry" />
        </mxCell>
        <mxCell id="59lSfz3TggU4L8-Xc4nE-42" style="edgeStyle=orthogonalEdgeStyle;rounded=0;orthogonalLoop=1;jettySize=auto;html=1;exitX=0;exitY=0;exitDx=0;exitDy=0;entryX=1;entryY=1;entryDx=0;entryDy=0;" edge="1" parent="1" source="59lSfz3TggU4L8-Xc4nE-20" target="59lSfz3TggU4L8-Xc4nE-21">
          <mxGeometry relative="1" as="geometry" />
        </mxCell>
        <mxCell id="59lSfz3TggU4L8-Xc4nE-45" style="edgeStyle=orthogonalEdgeStyle;rounded=0;orthogonalLoop=1;jettySize=auto;html=1;exitX=1;exitY=0.75;exitDx=0;exitDy=0;entryX=0;entryY=1;entryDx=0;entryDy=0;" edge="1" parent="1" source="59lSfz3TggU4L8-Xc4nE-20" target="59lSfz3TggU4L8-Xc4nE-1">
          <mxGeometry relative="1" as="geometry">
            <mxPoint x="99.99999999999977" y="380" as="targetPoint" />
          </mxGeometry>
        </mxCell>
        <mxCell id="59lSfz3TggU4L8-Xc4nE-20" value="Subscription" style="rounded=0;whiteSpace=wrap;html=1;" vertex="1" parent="1">
          <mxGeometry x="110" y="730" width="120" height="60" as="geometry" />
        </mxCell>
        <mxCell id="59lSfz3TggU4L8-Xc4nE-21" value="SubID" style="ellipse;whiteSpace=wrap;html=1;" vertex="1" parent="1">
          <mxGeometry x="40" y="630" width="70" height="60" as="geometry" />
        </mxCell>
        <mxCell id="59lSfz3TggU4L8-Xc4nE-44" style="edgeStyle=orthogonalEdgeStyle;rounded=0;orthogonalLoop=1;jettySize=auto;html=1;exitX=0;exitY=1;exitDx=0;exitDy=0;entryX=0.542;entryY=-0.011;entryDx=0;entryDy=0;entryPerimeter=0;" edge="1" parent="1" source="59lSfz3TggU4L8-Xc4nE-22" target="59lSfz3TggU4L8-Xc4nE-20">
          <mxGeometry relative="1" as="geometry" />
        </mxCell>
        <mxCell id="59lSfz3TggU4L8-Xc4nE-22" value="CourseID" style="ellipse;whiteSpace=wrap;html=1;" vertex="1" parent="1">
          <mxGeometry x="150" y="640" width="80" height="50" as="geometry" />
        </mxCell>
        <mxCell id="59lSfz3TggU4L8-Xc4nE-23" value="" style="endArrow=none;html=1;rounded=0;entryX=0.5;entryY=1;entryDx=0;entryDy=0;exitX=0.419;exitY=-0.044;exitDx=0;exitDy=0;exitPerimeter=0;" edge="1" parent="1" source="59lSfz3TggU4L8-Xc4nE-1" target="59lSfz3TggU4L8-Xc4nE-11">
          <mxGeometry width="50" height="50" relative="1" as="geometry">
            <mxPoint x="420" y="370" as="sourcePoint" />
            <mxPoint x="470" y="320" as="targetPoint" />
          </mxGeometry>
        </mxCell>
        <mxCell id="59lSfz3TggU4L8-Xc4nE-24" value="" style="endArrow=none;html=1;rounded=0;entryX=0.5;entryY=1;entryDx=0;entryDy=0;exitX=0.577;exitY=-0.007;exitDx=0;exitDy=0;exitPerimeter=0;" edge="1" parent="1" source="59lSfz3TggU4L8-Xc4nE-1" target="59lSfz3TggU4L8-Xc4nE-13">
          <mxGeometry width="50" height="50" relative="1" as="geometry">
            <mxPoint x="260" y="210" as="sourcePoint" />
            <mxPoint x="310" y="160" as="targetPoint" />
          </mxGeometry>
        </mxCell>
        <mxCell id="59lSfz3TggU4L8-Xc4nE-25" value="" style="endArrow=none;html=1;rounded=0;entryX=0.5;entryY=1;entryDx=0;entryDy=0;exitX=1;exitY=0;exitDx=0;exitDy=0;" edge="1" parent="1" source="59lSfz3TggU4L8-Xc4nE-1" target="59lSfz3TggU4L8-Xc4nE-14">
          <mxGeometry width="50" height="50" relative="1" as="geometry">
            <mxPoint x="290" y="240" as="sourcePoint" />
            <mxPoint x="340" y="190" as="targetPoint" />
          </mxGeometry>
        </mxCell>
        <mxCell id="59lSfz3TggU4L8-Xc4nE-43" style="edgeStyle=orthogonalEdgeStyle;rounded=0;orthogonalLoop=1;jettySize=auto;html=1;exitX=0;exitY=1;exitDx=0;exitDy=0;entryX=1.007;entryY=0.103;entryDx=0;entryDy=0;entryPerimeter=0;" edge="1" parent="1" source="59lSfz3TggU4L8-Xc4nE-26" target="59lSfz3TggU4L8-Xc4nE-20">
          <mxGeometry relative="1" as="geometry" />
        </mxCell>
        <mxCell id="59lSfz3TggU4L8-Xc4nE-26" value="SubscriptionDate" style="ellipse;whiteSpace=wrap;html=1;" vertex="1" parent="1">
          <mxGeometry x="250" y="690" width="110" height="50" as="geometry" />
        </mxCell>
        <mxCell id="59lSfz3TggU4L8-Xc4nE-36" style="edgeStyle=orthogonalEdgeStyle;rounded=0;orthogonalLoop=1;jettySize=auto;html=1;exitX=0;exitY=0.25;exitDx=0;exitDy=0;entryX=1;entryY=0.5;entryDx=0;entryDy=0;" edge="1" parent="1" source="59lSfz3TggU4L8-Xc4nE-27" target="59lSfz3TggU4L8-Xc4nE-34">
          <mxGeometry relative="1" as="geometry" />
        </mxCell>
        <mxCell id="59lSfz3TggU4L8-Xc4nE-37" style="edgeStyle=orthogonalEdgeStyle;rounded=0;orthogonalLoop=1;jettySize=auto;html=1;exitX=0;exitY=1;exitDx=0;exitDy=0;" edge="1" parent="1" source="59lSfz3TggU4L8-Xc4nE-27" target="59lSfz3TggU4L8-Xc4nE-35">
          <mxGeometry relative="1" as="geometry" />
        </mxCell>
        <mxCell id="59lSfz3TggU4L8-Xc4nE-27" value="m/m Rel table" style="rounded=0;whiteSpace=wrap;html=1;" vertex="1" parent="1">
          <mxGeometry x="320" y="400" width="120" height="60" as="geometry" />
        </mxCell>
        <mxCell id="59lSfz3TggU4L8-Xc4nE-30" value="1" style="text;html=1;align=center;verticalAlign=middle;resizable=0;points=[];autosize=1;strokeColor=none;fillColor=none;" vertex="1" parent="1">
          <mxGeometry x="260" y="300" width="20" height="20" as="geometry" />
        </mxCell>
        <mxCell id="59lSfz3TggU4L8-Xc4nE-31" value="M" style="text;html=1;align=center;verticalAlign=middle;resizable=0;points=[];autosize=1;strokeColor=none;fillColor=none;" vertex="1" parent="1">
          <mxGeometry x="380" y="370" width="20" height="20" as="geometry" />
        </mxCell>
        <mxCell id="59lSfz3TggU4L8-Xc4nE-32" value="1" style="text;html=1;align=center;verticalAlign=middle;resizable=0;points=[];autosize=1;strokeColor=none;fillColor=none;" vertex="1" parent="1">
          <mxGeometry x="640" y="330" width="20" height="20" as="geometry" />
        </mxCell>
        <mxCell id="59lSfz3TggU4L8-Xc4nE-33" value="M" style="text;html=1;align=center;verticalAlign=middle;resizable=0;points=[];autosize=1;strokeColor=none;fillColor=none;" vertex="1" parent="1">
          <mxGeometry x="470" y="460" width="20" height="20" as="geometry" />
        </mxCell>
        <mxCell id="59lSfz3TggU4L8-Xc4nE-34" value="USERID" style="ellipse;whiteSpace=wrap;html=1;" vertex="1" parent="1">
          <mxGeometry x="155" y="380" width="80" height="40" as="geometry" />
        </mxCell>
        <mxCell id="59lSfz3TggU4L8-Xc4nE-35" value="ROLEID" style="ellipse;whiteSpace=wrap;html=1;" vertex="1" parent="1">
          <mxGeometry x="180" y="440" width="90" height="50" as="geometry" />
        </mxCell>
        <mxCell id="59lSfz3TggU4L8-Xc4nE-40" value="USERID" style="ellipse;whiteSpace=wrap;html=1;" vertex="1" parent="1">
          <mxGeometry x="30" y="830" width="90" height="50" as="geometry" />
        </mxCell>
        <mxCell id="59lSfz3TggU4L8-Xc4nE-46" value="1" style="text;html=1;align=center;verticalAlign=middle;resizable=0;points=[];autosize=1;strokeColor=none;fillColor=none;" vertex="1" parent="1">
          <mxGeometry x="110" y="410" width="20" height="20" as="geometry" />
        </mxCell>
        <mxCell id="59lSfz3TggU4L8-Xc4nE-47" value="M" style="text;html=1;align=center;verticalAlign=middle;resizable=0;points=[];autosize=1;strokeColor=none;fillColor=none;" vertex="1" parent="1">
          <mxGeometry x="260" y="670" width="20" height="20" as="geometry" />
        </mxCell>
      </root>
    </mxGraphModel>
  </diagram>
</mxfile>
